REM DIRINDEX 1\2,1\3,1\4,1\5
REM DIRNAME "folder01","folder02","folder03","folder04","folder05"
TITLE ""
FILE "1Q_t_1089-1100.mp3" MP3
  TRACK 01 AUDIO
    TITLE "3:cjc172_4228"
    INDEX 01 00:00:00
  TRACK 02 AUDIO
    TITLE "0:"
    INDEX 01 00:01:10
  TRACK 03 AUDIO
    TITLE "4:cjc172_4229"
    INDEX 01 00:01:22
  TRACK 04 AUDIO
    TITLE "0:"
    INDEX 01 00:03:58
  TRACK 05 AUDIO
    TITLE "5:cjc172_4230"
    INDEX 01 00:03:63
  TRACK 06 AUDIO
    TITLE "0:"
    INDEX 01 00:08:24
  TRACK 07 AUDIO
    TITLE "3:cjc172_4231"
    INDEX 01 00:08:73
  TRACK 08 AUDIO
    TITLE "0:"
    INDEX 01 00:09:72
  TRACK 09 AUDIO
    TITLE "4:cjc172_4232"
    INDEX 01 00:10:05
  TRACK 10 AUDIO
    TITLE "0:"
    INDEX 01 00:12:53
  TRACK 11 AUDIO
    TITLE "5:cjc172_4233"
    INDEX 01 00:12:61
  TRACK 12 AUDIO
    TITLE "0:"
    INDEX 01 00:19:45
  TRACK 13 AUDIO
    TITLE "3:cjc172_4234"
    INDEX 01 00:20:17
  TRACK 14 AUDIO
    TITLE "0:"
    INDEX 01 00:21:42
  TRACK 15 AUDIO
    TITLE "4:cjc172_4235"
    INDEX 01 00:21:50
  TRACK 16 AUDIO
    TITLE "0:"
    INDEX 01 00:23:74
  TRACK 17 AUDIO
    TITLE "5:cjc172_4236"
    INDEX 01 00:24:07
  TRACK 18 AUDIO
    TITLE "0:"
    INDEX 01 00:30:60
  TRACK 19 AUDIO
    TITLE "3:cjc172_4237"
    INDEX 01 00:31:34
  TRACK 20 AUDIO
    TITLE "0:"
    INDEX 01 00:32:40
  TRACK 21 AUDIO
    TITLE "4:cjc172_4238"
    INDEX 01 00:32:48
  TRACK 22 AUDIO
    TITLE "0:"
    INDEX 01 00:36:32
  TRACK 23 AUDIO
    TITLE "5:cjc172_4239"
    INDEX 01 00:36:37
  TRACK 24 AUDIO
    TITLE "0:"
    INDEX 01 00:42:38
  TRACK 25 AUDIO
    TITLE "3:cjc172_4240"
    INDEX 01 00:43:06
  TRACK 26 AUDIO
    TITLE "0:"
    INDEX 01 00:44:12
  TRACK 27 AUDIO
    TITLE "4:cjc172_4241"
    INDEX 01 00:44:19
  TRACK 28 AUDIO
    TITLE "0:"
    INDEX 01 00:46:40
  TRACK 29 AUDIO
    TITLE "5:cjc172_4242"
    INDEX 01 00:46:46
  TRACK 30 AUDIO
    TITLE "0:"
    INDEX 01 00:52:60
  TRACK 31 AUDIO
    TITLE "3:cjc172_4243"
    INDEX 01 00:53:30
  TRACK 32 AUDIO
    TITLE "0:"
    INDEX 01 00:54:33
  TRACK 33 AUDIO
    TITLE "4:cjc172_4244"
    INDEX 01 00:54:41
  TRACK 34 AUDIO
    TITLE "0:"
    INDEX 01 00:57:28
  TRACK 35 AUDIO
    TITLE "5:cjc172_4245"
    INDEX 01 00:57:34
  TRACK 36 AUDIO
    TITLE "0:"
    INDEX 01 01:03:52
  TRACK 37 AUDIO
    TITLE "3:cjc172_4246"
    INDEX 01 01:04:22
  TRACK 38 AUDIO
    TITLE "0:"
    INDEX 01 01:05:41
  TRACK 39 AUDIO
    TITLE "4:cjc172_4247"
    INDEX 01 01:05:49
  TRACK 40 AUDIO
    TITLE "0:"
    INDEX 01 01:08:14
  TRACK 41 AUDIO
    TITLE "5:cjc172_4248"
    INDEX 01 01:08:20
  TRACK 42 AUDIO
    TITLE "0:"
    INDEX 01 01:11:69
  TRACK 43 AUDIO
    TITLE "3:cjc172_4249"
    INDEX 01 01:12:39
  TRACK 44 AUDIO
    TITLE "0:"
    INDEX 01 01:13:58
  TRACK 45 AUDIO
    TITLE "4:cjc172_4250"
    INDEX 01 01:13:66
  TRACK 46 AUDIO
    TITLE "0:"
    INDEX 01 01:15:04
  TRACK 47 AUDIO
    TITLE "5:cjc172_4251"
    INDEX 01 01:15:12
  TRACK 48 AUDIO
    TITLE "0:"
    INDEX 01 01:18:20
  TRACK 49 AUDIO
    TITLE "3:cjc172_4252"
    INDEX 01 01:18:71
  TRACK 50 AUDIO
    TITLE "0:"
    INDEX 01 01:20:11
  TRACK 51 AUDIO
    TITLE "4:cjc172_4253"
    INDEX 01 01:20:19
  TRACK 52 AUDIO
    TITLE "0:"
    INDEX 01 01:21:26
  TRACK 53 AUDIO
    TITLE "5:cjc172_4254"
    INDEX 01 01:21:34
  TRACK 54 AUDIO
    TITLE "0:"
    INDEX 01 01:25:73
  TRACK 55 AUDIO
    TITLE "3:cjc172_4255"
    INDEX 01 01:26:45
  TRACK 56 AUDIO
    TITLE "0:"
    INDEX 01 01:27:62
  TRACK 57 AUDIO
    TITLE "4:cjc172_4256"
    INDEX 01 01:27:68
  TRACK 58 AUDIO
    TITLE "0:"
    INDEX 01 01:30:72
  TRACK 59 AUDIO
    TITLE "5:cjc172_4257"
    INDEX 01 01:31:05
  TRACK 60 AUDIO
    TITLE "0:"
    INDEX 01 01:34:25
  TRACK 61 AUDIO
    TITLE "3:cjc172_4258"
    INDEX 01 01:34:70
  TRACK 62 AUDIO
    TITLE "0:"
    INDEX 01 01:36:12
  TRACK 63 AUDIO
    TITLE "4:cjc172_4259"
    INDEX 01 01:36:24
  TRACK 64 AUDIO
    TITLE "0:"
    INDEX 01 01:37:55
  TRACK 65 AUDIO
    TITLE "5:cjc172_4260"
    INDEX 01 01:37:63
  TRACK 66 AUDIO
    TITLE "0:"
    INDEX 01 01:42:27
  TRACK 67 AUDIO
    TITLE "2:cjc172_4261"
    INDEX 01 01:42:74
  TRACK 68 AUDIO
    TITLE "0:"
    INDEX 01 01:44:04
  TRACK 69 AUDIO
    TITLE "3:cjc172_4262"
    INDEX 01 01:44:49
  TRACK 70 AUDIO
    TITLE "0:"
    INDEX 01 01:46:07
  TRACK 71 AUDIO
    TITLE "4:cjc172_4263"
    INDEX 01 01:46:18
  TRACK 72 AUDIO
    TITLE "0:"
    INDEX 01 01:47:47
  TRACK 73 AUDIO
    TITLE "5:cjc172_4264"
    INDEX 01 01:47:55
  TRACK 74 AUDIO
    TITLE "0:"
    INDEX 01 01:53:34
